
<svg xmlns="http://www.w3.org/2000/svg" width="1000" height="628.90625" viewBox="0 0 1000 628.90625">
    <style>
        text, tspan {
            white-space: pre;
            font-family: monospace;
        }
        .console { 
            font-size: 30px; 
            fill: #00FF00; 
            line-height: 1.2;
        }
        .cyan {
            fill: #00FFFF;
        }
        .white {
            fill: #FFFFFF;
        }
        .green {
            fill: #4CCC6C;
        }
        .red {
            fill: #FF5555;
        }
        .legend-item {
            display: flex;
            align-items: center;
            margin-bottom: 8px;
        }
    </style>
    <rect width="100%" height="100%" fill="black" rx="15"/>

    <!-- Stats Section -->
    <text x="50" y="50" class="console ascii-art">
        <tspan x="50" y="66.40625">$ okrame github-stats</tspan>
        <tspan x="50" y="118.90625"><tspan class="cyan">account-age:</tspan> <tspan class="white">1327 days</tspan></tspan>
        <tspan x="50" y="153.90625"><tspan class="cyan">repos:</tspan> <tspan class="white">40</tspan></tspan>
        <tspan x="50" y="188.90625"><tspan class="cyan">commits:</tspan> <tspan class="white">699</tspan></tspan>
        <tspan x="50" y="223.90625"><tspan class="cyan">lines:</tspan> <tspan class="white">374023 (<tspan class="green">508995++</tspan>, <tspan class="red">134972--</tspan>)</tspan></tspan>
        <tspan x="50" y="258.90625"><tspan class="cyan">languages:</tspan></tspan>

    </text>

    <!-- Pie Chart -->
    <g transform="translate(50, 278.90625)">
        <svg width="300" height="300" viewBox="0 0 300 300" xmlns="http://www.w3.org/2000/svg">
  <!-- Pie Chart Wedges -->
  <path d="M 150 150 L 150 0 A 150 150 0 0 1 226.11144753222317 279.25574476420627 Z" fill="#3776AB" stroke="#333" stroke-width="0.5" />
  <path d="M 150 150 L 226.11144753222317 279.25574476420627 A 150 150 0 0 1 7.133296985727441 195.70673002777207 Z" fill="#3178C6" stroke="#333" stroke-width="0.5" />
  <path d="M 150 150 L 7.133296985727441 195.70673002777207 A 150 150 0 0 1 26.78039106994767 64.46095642851172 Z" fill="#363636" stroke="#333" stroke-width="0.5" />
  <path d="M 150 150 L 26.78039106994767 64.46095642851172 A 150 150 0 0 1 90.90947801727404 12.129371467999107 Z" fill="#F7DF1E" stroke="#333" stroke-width="0.5" />
  <path d="M 150 150 L 90.90947801727404 12.129371467999107 A 150 150 0 0 1 108.15311880888741 5.95542865287527 Z" fill="#58A6FF" stroke="#333" stroke-width="0.5" />
  <path d="M 150 150 L 108.15311880888741 5.95542865287527 A 150 150 0 0 1 119.99462130005219 3.0317134580636207 Z" fill="#B7410E" stroke="#333" stroke-width="0.5" />
  <path d="M 150 150 L 119.99462130005219 3.0317134580636207 A 150 150 0 0 1 129.4455201818714 1.4149625318681558 Z" fill="#5D4F85" stroke="#333" stroke-width="0.5" />
  <path d="M 150 150 L 129.4455201818714 1.4149625318681558 A 150 150 0 0 1 149.99999999999997 0 Z" fill="#808080" stroke="#333" stroke-width="0.5" />
  <text x="251.30473147925807" y="122.38928867422248" text-anchor="middle" dominant-baseline="middle" fill="#FFFFFF" font-weight="bold" font-family="monospace">42%</text>
  <text x="112.57011895900457" y="248.1020081611836" text-anchor="middle" dominant-baseline="middle" fill="#FFFFFF" font-weight="bold" font-family="monospace">29%</text>
  <text x="46.15707118322594" y="134.45502863449428" text-anchor="middle" dominant-baseline="middle" fill="#FFFFFF" font-weight="bold" font-family="monospace">15%</text>
  <text x="83.61469755514824" y="68.64896055178177" text-anchor="middle" dominant-baseline="middle" fill="#000000" font-weight="bold" font-family="monospace">9%</text>
</svg>
    </g>

    <!-- Legend -->
    <g transform="translate(400, 298.90625)">
        <rect x="0" y="0" width="20" height="20" fill="#3776AB" stroke="#333" stroke-width="1" />
        <text x="30" y="16" class="white">Python          41.5%</text>
        <rect x="0" y="35" width="20" height="20" fill="#3178C6" stroke="#333" stroke-width="1" />
        <text x="30" y="51" class="white">TypeScript      28.5%</text>
        <rect x="0" y="70" width="20" height="20" fill="#363636" stroke="#333" stroke-width="1" />
        <text x="30" y="86" class="white">Solidity        14.6%</text>
        <rect x="0" y="105" width="20" height="20" fill="#F7DF1E" stroke="#333" stroke-width="1" />
        <text x="30" y="121" class="white">JavaScript      8.9%</text>
        <rect x="0" y="140" width="20" height="20" fill="#58A6FF" stroke="#333" stroke-width="1" />
        <text x="30" y="156" class="white">Circom          1.9%</text>
        <rect x="0" y="175" width="20" height="20" fill="#B7410E" stroke="#333" stroke-width="1" />
        <text x="30" y="191" class="white">Rust            1.3%</text>
        <rect x="0" y="210" width="20" height="20" fill="#5D4F85" stroke="#333" stroke-width="1" />
        <text x="30" y="226" class="white">Haskell         1.0%</text>
        <rect x="0" y="245" width="20" height="20" fill="#808080" stroke="#333" stroke-width="1" />
        <text x="30" y="261" class="white">Others          2.2%</text>
    </g>
</svg>