
<svg xmlns="http://www.w3.org/2000/svg" width="1000" height="629.5" viewBox="0 0 1000 629.5">
    <style>
        text, tspan {
            white-space: pre;
            font-family: monospace;
        }
        .console { 
            font-size: 30px; 
            fill: #00FF00; 
            line-height: 1.2;
        }
        .cyan {
            fill: #00FFFF;
        }
        .white {
            fill: #FFFFFF;
        }
        .green {
            fill: #4CCC6C;
        }
        .red {
            fill: #FF5555;
        }
        .legend-item {
            display: flex;
            align-items: center;
            margin-bottom: 8px;
        }
    </style>
    <rect width="100%" height="100%" fill="black" rx="15"/>

    <!-- Stats Section -->
    <text x="50" y="50" class="console ascii-art">
        <tspan x="50" y="67">$ okrame github-stats</tspan>
        <tspan x="50" y="119.5"><tspan class="cyan">account-age:</tspan> <tspan class="white">1333 days</tspan></tspan>
        <tspan x="50" y="154.5"><tspan class="cyan">repos:</tspan> <tspan class="white">40</tspan></tspan>
        <tspan x="50" y="189.5"><tspan class="cyan">commits:</tspan> <tspan class="white">703</tspan></tspan>
        <tspan x="50" y="224.5"><tspan class="cyan">lines:</tspan> <tspan class="white">374130 (<tspan class="green">509351++</tspan>, <tspan class="red">135221--</tspan>)</tspan></tspan>
        <tspan x="50" y="259.5"><tspan class="cyan">languages:</tspan></tspan>

    </text>

    <!-- Pie Chart -->
    <g transform="translate(50, 279.5)">
        <svg width="300" height="300" viewBox="0 0 300 300" xmlns="http://www.w3.org/2000/svg">
  <!-- Pie Chart Wedges -->
  <path d="M 150 150 L 150 0 A 150 150 0 0 1 226.1700387012985 279.22122582703935 Z" fill="#3776AB" stroke="#333" stroke-width="0.5" />
  <path d="M 150 150 L 226.1700387012985 279.22122582703935 A 150 150 0 0 1 7.166793344863208 195.81129856935934 Z" fill="#3178C6" stroke="#333" stroke-width="0.5" />
  <path d="M 150 150 L 7.166793344863208 195.81129856935934 A 150 150 0 0 1 26.7042041176761 64.5708087493255 Z" fill="#363636" stroke="#333" stroke-width="0.5" />
  <path d="M 150 150 L 26.7042041176761 64.5708087493255 A 150 150 0 0 1 90.77323944962433 12.187842210099376 Z" fill="#F7DF1E" stroke="#333" stroke-width="0.5" />
  <path d="M 150 150 L 90.77323944962433 12.187842210099376 A 150 150 0 0 1 108.007712866825 5.997750637967528 Z" fill="#58A6FF" stroke="#333" stroke-width="0.5" />
  <path d="M 150 150 L 108.007712866825 5.997750637967528 A 150 150 0 0 1 119.99976374560514 3.030663658433525 Z" fill="#B7410E" stroke="#333" stroke-width="0.5" />
  <path d="M 150 150 L 119.99976374560514 3.030663658433525 A 150 150 0 0 1 129.4490687773509 1.4144716808465603 Z" fill="#5D4F85" stroke="#333" stroke-width="0.5" />
  <path d="M 150 150 L 129.4490687773509 1.4144716808465603 A 150 150 0 0 1 149.99999999999997 0 Z" fill="#808080" stroke="#333" stroke-width="0.5" />
  <text x="251.29847012242433" y="122.36632578073801" text-anchor="middle" dominant-baseline="middle" fill="#FFFFFF" font-weight="bold" font-family="monospace">42%</text>
  <text x="112.62826929309126" y="248.12417512504396" text-anchor="middle" dominant-baseline="middle" fill="#FFFFFF" font-weight="bold" font-family="monospace">29%</text>
  <text x="46.144488641315704" y="134.53931565466146" text-anchor="middle" dominant-baseline="middle" fill="#FFFFFF" font-weight="bold" font-family="monospace">15%</text>
  <text x="83.53827265412994" y="68.7113858021726" text-anchor="middle" dominant-baseline="middle" fill="#000000" font-weight="bold" font-family="monospace">9%</text>
</svg>
    </g>

    <!-- Legend -->
    <g transform="translate(400, 299.5)">
        <rect x="0" y="0" width="20" height="20" fill="#3776AB" stroke="#333" stroke-width="1" />
        <text x="30" y="16" class="white">Python          41.5%</text>
        <rect x="0" y="35" width="20" height="20" fill="#3178C6" stroke="#333" stroke-width="1" />
        <text x="30" y="51" class="white">TypeScript      28.5%</text>
        <rect x="0" y="70" width="20" height="20" fill="#363636" stroke="#333" stroke-width="1" />
        <text x="30" y="86" class="white">Solidity        14.6%</text>
        <rect x="0" y="105" width="20" height="20" fill="#F7DF1E" stroke="#333" stroke-width="1" />
        <text x="30" y="121" class="white">JavaScript      8.9%</text>
        <rect x="0" y="140" width="20" height="20" fill="#58A6FF" stroke="#333" stroke-width="1" />
        <text x="30" y="156" class="white">Circom          1.9%</text>
        <rect x="0" y="175" width="20" height="20" fill="#B7410E" stroke="#333" stroke-width="1" />
        <text x="30" y="191" class="white">Rust            1.3%</text>
        <rect x="0" y="210" width="20" height="20" fill="#5D4F85" stroke="#333" stroke-width="1" />
        <text x="30" y="226" class="white">Haskell         1.0%</text>
        <rect x="0" y="245" width="20" height="20" fill="#808080" stroke="#333" stroke-width="1" />
        <text x="30" y="261" class="white">Others          2.2%</text>
    </g>
</svg>