
<svg xmlns="http://www.w3.org/2000/svg" width="1000" height="629.5" viewBox="0 0 1000 629.5">
    <style>
        text, tspan {
            white-space: pre;
            font-family: monospace;
        }
        .console { 
            font-size: 30px; 
            fill: #00FF00; 
            line-height: 1.2;
        }
        .cyan {
            fill: #00FFFF;
        }
        .white {
            fill: #FFFFFF;
        }
        .green {
            fill: #4CCC6C;
        }
        .red {
            fill: #FF5555;
        }
        .legend-item {
            display: flex;
            align-items: center;
            margin-bottom: 8px;
        }
    </style>
    <rect width="100%" height="100%" fill="black" rx="15"/>

    <!-- Stats Section -->
    <text x="50" y="50" class="console ascii-art">
        <tspan x="50" y="67">$ okrame github-stats</tspan>
        <tspan x="50" y="119.5"><tspan class="cyan">account-age:</tspan> <tspan class="white">1480 days</tspan></tspan>
        <tspan x="50" y="154.5"><tspan class="cyan">repos:</tspan> <tspan class="white">46</tspan></tspan>
        <tspan x="50" y="189.5"><tspan class="cyan">commits:</tspan> <tspan class="white">913</tspan></tspan>
        <tspan x="50" y="224.5"><tspan class="cyan">lines:</tspan> <tspan class="white">515036 (<tspan class="green">767512++</tspan>, <tspan class="red">252476--</tspan>)</tspan></tspan>
        <tspan x="50" y="259.5"><tspan class="cyan">languages:</tspan></tspan>

    </text>

    <!-- Pie Chart -->
    <g transform="translate(50, 279.5)">
        <svg width="300" height="300" viewBox="0 0 300 300" xmlns="http://www.w3.org/2000/svg">
  <!-- Pie Chart Wedges -->
  <path d="M 150 150 L 150 0 A 150 150 0 0 1 242.22399853247546 268.29934105768285 Z" fill="#3776AB" stroke="#333" stroke-width="0.5" />
  <path d="M 150 150 L 242.22399853247546 268.29934105768285 A 150 150 0 0 1 7.92700494212724 198.11719105772556 Z" fill="#3178C6" stroke="#333" stroke-width="0.5" />
  <path d="M 150 150 L 7.92700494212724 198.11719105772556 A 150 150 0 0 1 20.037632561836688 75.1015150362317 Z" fill="#363636" stroke="#333" stroke-width="0.5" />
  <path d="M 150 150 L 20.037632561836688 75.1015150362317 A 150 150 0 0 1 75.71806546825317 19.684251902460858 Z" fill="#F7DF1E" stroke="#333" stroke-width="0.5" />
  <path d="M 150 150 L 75.71806546825317 19.684251902460858 A 150 150 0 0 1 90.90696646518927 12.130447931192094 Z" fill="#58A6FF" stroke="#333" stroke-width="0.5" />
  <path d="M 150 150 L 90.90696646518927 12.130447931192094 A 150 150 0 0 1 105.97753534921623 6.605360609015463 Z" fill="#B7410E" stroke="#333" stroke-width="0.5" />
  <path d="M 150 150 L 105.97753534921623 6.605360609015463 A 150 150 0 0 1 117.40777497106103 3.583652320982253 Z" fill="#F15BB5" stroke="#333" stroke-width="0.5" />
  <path d="M 150 150 L 117.40777497106103 3.583652320982253 A 150 150 0 0 1 150.0000000000001 0 Z" fill="#808080" stroke="#333" stroke-width="0.5" />
  <text x="249.29753664552732" y="115.86791515113447" text-anchor="middle" dominant-baseline="middle" fill="#FFFFFF" font-weight="bold" font-family="monospace">39%</text>
  <text x="119.87059679370198" y="250.58438776685136" text-anchor="middle" dominant-baseline="middle" fill="#FFFFFF" font-weight="bold" font-family="monospace">30%</text>
  <text x="45.505159759280815" y="139.71270866230688" text-anchor="middle" dominant-baseline="middle" fill="#FFFFFF" font-weight="bold" font-family="monospace">14%</text>
  <text x="75.9298712523014" y="75.57812131302144" text-anchor="middle" dominant-baseline="middle" fill="#000000" font-weight="bold" font-family="monospace">8%</text>
  <text x="138.52397181965384" y="45.62902330051759" text-anchor="middle" dominant-baseline="middle" fill="#FFFFFF" font-weight="bold" font-family="monospace">3%</text>
</svg>
    </g>

    <!-- Legend -->
    <g transform="translate(400, 299.5)">
        <rect x="0" y="0" width="20" height="20" fill="#3776AB" stroke="#333" stroke-width="1" />
        <text x="30" y="16" class="white">Python          39.5%</text>
        <rect x="0" y="35" width="20" height="20" fill="#3178C6" stroke="#333" stroke-width="1" />
        <text x="30" y="51" class="white">TypeScript      30.3%</text>
        <rect x="0" y="70" width="20" height="20" fill="#363636" stroke="#333" stroke-width="1" />
        <text x="30" y="86" class="white">Solidity        13.5%</text>
        <rect x="0" y="105" width="20" height="20" fill="#F7DF1E" stroke="#333" stroke-width="1" />
        <text x="30" y="121" class="white">JavaScript      8.4%</text>
        <rect x="0" y="140" width="20" height="20" fill="#58A6FF" stroke="#333" stroke-width="1" />
        <text x="30" y="156" class="white">Circom          1.8%</text>
        <rect x="0" y="175" width="20" height="20" fill="#B7410E" stroke="#333" stroke-width="1" />
        <text x="30" y="191" class="white">Rust            1.7%</text>
        <rect x="0" y="210" width="20" height="20" fill="#F15BB5" stroke="#333" stroke-width="1" />
        <text x="30" y="226" class="white">TeX             1.3%</text>
        <rect x="0" y="245" width="20" height="20" fill="#808080" stroke="#333" stroke-width="1" />
        <text x="30" y="261" class="white">Others          3.5%</text>
    </g>
</svg>