
<svg xmlns="http://www.w3.org/2000/svg" width="1000" height="629.5" viewBox="0 0 1000 629.5">
    <style>
        text, tspan {
            white-space: pre;
            font-family: monospace;
        }
        .console { 
            font-size: 30px; 
            fill: #00FF00; 
            line-height: 1.2;
        }
        .cyan {
            fill: #00FFFF;
        }
        .white {
            fill: #FFFFFF;
        }
        .green {
            fill: #4CCC6C;
        }
        .red {
            fill: #FF5555;
        }
        .legend-item {
            display: flex;
            align-items: center;
            margin-bottom: 8px;
        }
    </style>
    <rect width="100%" height="100%" fill="black" rx="15"/>

    <!-- Stats Section -->
    <text x="50" y="50" class="console ascii-art">
        <tspan x="50" y="67">$ okrame github-stats</tspan>
        <tspan x="50" y="119.5"><tspan class="cyan">account-age:</tspan> <tspan class="white">1445 days</tspan></tspan>
        <tspan x="50" y="154.5"><tspan class="cyan">repos:</tspan> <tspan class="white">46</tspan></tspan>
        <tspan x="50" y="189.5"><tspan class="cyan">commits:</tspan> <tspan class="white">901</tspan></tspan>
        <tspan x="50" y="224.5"><tspan class="cyan">lines:</tspan> <tspan class="white">482634 (<tspan class="green">731941++</tspan>, <tspan class="red">249307--</tspan>)</tspan></tspan>
        <tspan x="50" y="259.5"><tspan class="cyan">languages:</tspan></tspan>

    </text>

    <!-- Pie Chart -->
    <g transform="translate(50, 279.5)">
        <svg width="300" height="300" viewBox="0 0 300 300" xmlns="http://www.w3.org/2000/svg">
  <!-- Pie Chart Wedges -->
  <path d="M 150 150 L 150 0 A 150 150 0 0 1 236.20458435119127 272.75491695585293 Z" fill="#3776AB" stroke="#333" stroke-width="0.5" />
  <path d="M 150 150 L 236.20458435119127 272.75491695585293 A 150 150 0 0 1 7.758322326731701 197.61622761931105 Z" fill="#3178C6" stroke="#333" stroke-width="0.5" />
  <path d="M 150 150 L 7.758322326731701 197.61622761931105 A 150 150 0 0 1 21.982473571452402 71.82383402138397 Z" fill="#363636" stroke="#333" stroke-width="0.5" />
  <path d="M 150 150 L 21.982473571452402 71.82383402138397 A 150 150 0 0 1 80.44372794037574 17.101824628147995 Z" fill="#F7DF1E" stroke="#333" stroke-width="0.5" />
  <path d="M 150 150 L 80.44372794037574 17.101824628147995 A 150 150 0 0 1 96.30531957284583 9.939722641193555 Z" fill="#58A6FF" stroke="#333" stroke-width="0.5" />
  <path d="M 150 150 L 96.30531957284583 9.939722641193555 A 150 150 0 0 1 109.04315470174942 5.69983775748841 Z" fill="#B7410E" stroke="#333" stroke-width="0.5" />
  <path d="M 150 150 L 109.04315470174942 5.69983775748841 A 150 150 0 0 1 150.0000000000001 0 Z" fill="#808080" stroke="#333" stroke-width="0.5" />
  <text x="250.11864560673797" y="118.35735785569726" text-anchor="middle" dominant-baseline="middle" fill="#FFFFFF" font-weight="bold" font-family="monospace">40%</text>
  <text x="117.19325737379489" y="249.7432586105845" text-anchor="middle" dominant-baseline="middle" fill="#FFFFFF" font-weight="bold" font-family="monospace">30%</text>
  <text x="45.6649097768002" y="138.20216341371193" text-anchor="middle" dominant-baseline="middle" fill="#FFFFFF" font-weight="bold" font-family="monospace">14%</text>
  <text x="78.24581364316032" y="73.34273198014475" text-anchor="middle" dominant-baseline="middle" fill="#000000" font-weight="bold" font-family="monospace">9%</text>
  <text x="135.52695479217667" y="46.002255012849915" text-anchor="middle" dominant-baseline="middle" fill="#FFFFFF" font-weight="bold" font-family="monospace">4%</text>
</svg>
    </g>

    <!-- Legend -->
    <g transform="translate(400, 299.5)">
        <rect x="0" y="0" width="20" height="20" fill="#3776AB" stroke="#333" stroke-width="1" />
        <text x="30" y="16" class="white">Python          40.3%</text>
        <rect x="0" y="35" width="20" height="20" fill="#3178C6" stroke="#333" stroke-width="1" />
        <text x="30" y="51" class="white">TypeScript      29.6%</text>
        <rect x="0" y="70" width="20" height="20" fill="#363636" stroke="#333" stroke-width="1" />
        <text x="30" y="86" class="white">Solidity        13.9%</text>
        <rect x="0" y="105" width="20" height="20" fill="#F7DF1E" stroke="#333" stroke-width="1" />
        <text x="30" y="121" class="white">JavaScript      8.6%</text>
        <rect x="0" y="140" width="20" height="20" fill="#58A6FF" stroke="#333" stroke-width="1" />
        <text x="30" y="156" class="white">Circom          1.8%</text>
        <rect x="0" y="175" width="20" height="20" fill="#B7410E" stroke="#333" stroke-width="1" />
        <text x="30" y="191" class="white">Rust            1.4%</text>
        <rect x="0" y="210" width="20" height="20" fill="#808080" stroke="#333" stroke-width="1" />
        <text x="30" y="226" class="white">Others          4.4%</text>
    </g>
</svg>