
<svg xmlns="http://www.w3.org/2000/svg" width="1000" height="629.5" viewBox="0 0 1000 629.5">
    <style>
        text, tspan {
            white-space: pre;
            font-family: monospace;
        }
        .console { 
            font-size: 30px; 
            fill: #00FF00; 
            line-height: 1.2;
        }
        .cyan {
            fill: #00FFFF;
        }
        .white {
            fill: #FFFFFF;
        }
        .green {
            fill: #4CCC6C;
        }
        .red {
            fill: #FF5555;
        }
        .legend-item {
            display: flex;
            align-items: center;
            margin-bottom: 8px;
        }
    </style>
    <rect width="100%" height="100%" fill="black" rx="15"/>

    <!-- Stats Section -->
    <text x="50" y="50" class="console ascii-art">
        <tspan x="50" y="67">$ okrame github-stats</tspan>
        <tspan x="50" y="119.5"><tspan class="cyan">account-age:</tspan> <tspan class="white">1256 days</tspan></tspan>
        <tspan x="50" y="154.5"><tspan class="cyan">repos:</tspan> <tspan class="white">39</tspan></tspan>
        <tspan x="50" y="189.5"><tspan class="cyan">commits:</tspan> <tspan class="white">644</tspan></tspan>
        <tspan x="50" y="224.5"><tspan class="cyan">lines:</tspan> <tspan class="white">375433 (<tspan class="green">493568++</tspan>, <tspan class="red">118135--</tspan>)</tspan></tspan>
        <tspan x="50" y="259.5"><tspan class="cyan">languages:</tspan></tspan>

    </text>

    <!-- Pie Chart -->
    <g transform="translate(50, 279.5)">
        <svg width="300" height="300" viewBox="0 0 300 300" xmlns="http://www.w3.org/2000/svg">
  <!-- Pie Chart Wedges -->
  <path d="M 150 150 L 150 0 A 150 150 0 0 1 225.75526831838604 279.464818858288 Z" fill="#3776AB" stroke="#333" stroke-width="0.5" />
  <path d="M 150 150 L 225.75526831838604 279.464818858288 A 150 150 0 0 1 5.486731496249973 190.19844805913596 Z" fill="#3178C6" stroke="#333" stroke-width="0.5" />
  <path d="M 150 150 L 5.486731496249973 190.19844805913596 A 150 150 0 0 1 30.227654429271496 59.697257868401394 Z" fill="#363636" stroke="#333" stroke-width="0.5" />
  <path d="M 150 150 L 30.227654429271496 59.697257868401394 A 150 150 0 0 1 94.30686992925602 10.722308811054745 Z" fill="#F7DF1E" stroke="#333" stroke-width="0.5" />
  <path d="M 150 150 L 94.30686992925602 10.722308811054745 A 150 150 0 0 1 111.71536895931234 4.967979307745935 Z" fill="#58A6FF" stroke="#333" stroke-width="0.5" />
  <path d="M 150 150 L 111.71536895931234 4.967979307745935 A 150 150 0 0 1 121.06940559871201 2.816370789451696 Z" fill="#5D4F85" stroke="#333" stroke-width="0.5" />
  <path d="M 150 150 L 121.06940559871201 2.816370789451696 A 150 150 0 0 1 149.99999999999997 0 Z" fill="#808080" stroke="#333" stroke-width="0.5" />
  <text x="251.34264696090233" y="122.52878038823332" text-anchor="middle" dominant-baseline="middle" fill="#FFFFFF" font-weight="bold" font-family="monospace">42%</text>
  <text x="110.56298598676716" y="247.31249624647432" text-anchor="middle" dominant-baseline="middle" fill="#FFFFFF" font-weight="bold" font-family="monospace">29%</text>
  <text x="46.837568902868014" y="130.44206528977318" text-anchor="middle" dominant-baseline="middle" fill="#FFFFFF" font-weight="bold" font-family="monospace">15%</text>
  <text x="86.23976042850772" y="66.57559200218493" text-anchor="middle" dominant-baseline="middle" fill="#000000" font-weight="bold" font-family="monospace">9%</text>
  <text x="139.82642508690526" y="45.49402709180853" text-anchor="middle" dominant-baseline="middle" fill="#FFFFFF" font-weight="bold" font-family="monospace">3%</text>
</svg>
    </g>

    <!-- Legend -->
    <g transform="translate(400, 299.5)">
        <rect x="0" y="0" width="20" height="20" fill="#3776AB" stroke="#333" stroke-width="1" />
        <text x="30" y="16" class="white">Python          41.6%</text>
        <rect x="0" y="35" width="20" height="20" fill="#3178C6" stroke="#333" stroke-width="1" />
        <text x="30" y="51" class="white">TypeScript      29.1%</text>
        <rect x="0" y="70" width="20" height="20" fill="#363636" stroke="#333" stroke-width="1" />
        <text x="30" y="86" class="white">Solidity        14.6%</text>
        <rect x="0" y="105" width="20" height="20" fill="#F7DF1E" stroke="#333" stroke-width="1" />
        <text x="30" y="121" class="white">JavaScript      8.7%</text>
        <rect x="0" y="140" width="20" height="20" fill="#58A6FF" stroke="#333" stroke-width="1" />
        <text x="30" y="156" class="white">Circom          1.9%</text>
        <rect x="0" y="175" width="20" height="20" fill="#5D4F85" stroke="#333" stroke-width="1" />
        <text x="30" y="191" class="white">Haskell         1.0%</text>
        <rect x="0" y="210" width="20" height="20" fill="#808080" stroke="#333" stroke-width="1" />
        <text x="30" y="226" class="white">Others          3.1%</text>
    </g>
</svg>